<?xml version="1.0" encoding="UTF-8" standalone="no"?><!DOCTYPE svg PUBLIC "-//W3C//DTD SVG 1.1//EN" "http://www.w3.org/Graphics/SVG/1.1/DTD/svg11.dtd"><svg width="100%" height="100%" viewBox="0 0 20834 4167" version="1.1" xmlns="http://www.w3.org/2000/svg" xmlns:xlink="http://www.w3.org/1999/xlink" xml:space="preserve" xmlns:serif="http://www.serif.com/" style="fill-rule:evenodd;clip-rule:evenodd;stroke-linecap:round;stroke-linejoin:round;"><path d="M3390.23,1407.34c55.668,-373.093 -202.041,-675.998 -575.134,-675.998l-1352,0c-373.094,0 -721.193,302.905 -776.862,675.998l-201.727,1352c-55.668,373.093 202.041,675.997 575.134,675.997l1352,0c373.093,0 721.193,-302.904 776.861,-675.997l201.728,-1352Z" style="fill:#f8a32b;"/><path d="M894.452,857.515l2451.64,-0l-365.801,2451.64l-2451.64,-0l365.801,-2451.64Z" style="fill:none;fill-rule:nonzero;"/><path d="M2039.52,2083.33l102.152,0c102.152,0 86.91,102.152 152.18,360.289c62.824,252.621 47.583,354.772 149.734,354.772l102.152,0" style="fill:none;fill-rule:nonzero;stroke:#fff;stroke-width:189.67px;"/><path d="M1830.68,2798.39c153.227,0 336.938,-204.303 461.952,-357.53c125.014,-153.228 308.725,-357.531 461.952,-357.531" style="fill:none;fill-rule:nonzero;stroke:#fff;stroke-width:189.67px;"/><path d="M1018.01,2083.33l102.152,0l184.52,817.213l550.323,-1634.42l1021.51,0" style="fill:none;fill-rule:nonzero;stroke:#fff;stroke-width:189.67px;"/><g transform="matrix(0.94154,0,-0.149207,1,-706.111,2.27374e-13)"><g transform="matrix(2547.97,0,0,2547.97,22642.1,2964.51)"></g><text x="4870.07px" y="2964.51px" style="font-family:'Expose-Bold', 'Expose';font-weight:700;font-size:2547.97px;">Leberk<tspan x="12172.5px " y="2964.51px ">a</tspan>sr<tspan x="15388.1px " y="2964.51px ">e</tspan>chner</text></g></svg>