<?xml version="1.0" encoding="UTF-8" standalone="no"?><!DOCTYPE svg PUBLIC "-//W3C//DTD SVG 1.1//EN" "http://www.w3.org/Graphics/SVG/1.1/DTD/svg11.dtd"><svg width="100%" height="100%" viewBox="0 0 20834 4167" version="1.1" xmlns="http://www.w3.org/2000/svg" xmlns:xlink="http://www.w3.org/1999/xlink" xml:space="preserve" xmlns:serif="http://www.serif.com/" style="fill-rule:evenodd;clip-rule:evenodd;stroke-linecap:round;stroke-linejoin:round;"><path d="M3788.1,1407.34c55.668,-373.093 -202.041,-675.998 -575.134,-675.998l-1352,0c-373.093,0 -721.193,302.905 -776.861,675.998l-201.727,1352c-55.668,373.093 202.04,675.997 575.134,675.997l1352,0c373.093,0 721.193,-302.904 776.861,-675.997l201.727,-1352Z" style="fill:#f8a32b;"/><path d="M1328.39,899.91l2366.85,0l-353.15,2366.85l-2366.85,0l353.15,-2366.85Z" style="fill:none;fill-rule:nonzero;"/><path d="M2433.86,2083.33l98.619,0c98.618,0 83.904,98.619 146.916,347.828c60.652,243.884 45.937,342.502 144.556,342.502l98.618,0" style="fill:none;fill-rule:nonzero;stroke:#fff;stroke-width:183.11px;"/><path d="M2232.24,2773.66c147.928,0 325.285,-197.237 445.976,-345.165c120.69,-147.927 298.047,-345.165 445.975,-345.165" style="fill:none;fill-rule:nonzero;stroke:#fff;stroke-width:183.11px;"/><path d="M1447.68,2083.33l98.619,0l178.139,788.949l531.289,-1577.9l986.186,-0" style="fill:none;fill-rule:nonzero;stroke:#fff;stroke-width:183.11px;"/><g transform="matrix(1,0,-0.149207,1,-231.578,-2.27374e-13)"><g transform="matrix(2194.03,0,0,2194.03,20375.4,2354.92)"></g><text x="4681.52px" y="2354.92px" style="font-family:'Expose-Black', 'Expose';font-weight:900;font-size:2194.03px;">Leberkasr<tspan x="13977.6px " y="2354.92px ">e</tspan>chner</text></g><g transform="matrix(1,0,-0.149207,1,229.668,-2.27374e-13)"><g transform="matrix(957.129,0,0,957.129,14357.3,3255.27)"></g><text x="4273.01px" y="3255.27px" style="font-family:'Expose-Black', 'Expose';font-weight:900;font-size:957.129px;fill:#828282;">Pr<tspan x="5144px 5666.59px 5993.93px " y="3255.27px 3255.27px 3255.27px ">ofe</tspan>ssional Plus E<tspan x="11932.9px " y="3255.27px ">d</tspan>ition</text></g></svg>